<svg width="20" height="20" viewBox="0 0 20 20" fill="none" xmlns="http://www.w3.org/2000/svg">
<path d="M6.25 7C6.25 5.48122 7.48122 4.25 9 4.25C10.5188 4.25 11.75 5.48122 11.75 7C11.75 8.51878 10.5188 9.75 9 9.75C7.48122 9.75 6.25 8.51878 6.25 7Z" fill="#94A3B8"/>
<path fill-rule="evenodd" clip-rule="evenodd" d="M9.95475 0.25H10.0452C11.8818 0.249992 13.3214 0.249985 14.4635 0.373728C15.6291 0.500006 16.5734 0.762324 17.3798 1.34815C17.8679 1.70281 18.2972 2.13209 18.6518 2.62024C19.2377 3.42656 19.5 4.37094 19.6263 5.53648C19.75 6.67859 19.75 8.11816 19.75 9.95465V10.006C19.75 10.9403 19.75 11.7682 19.7348 12.5005C19.6903 14.6546 19.5217 16.1825 18.6518 17.3798C18.2972 17.8679 17.8679 18.2972 17.3798 18.6518C16.5734 19.2377 15.6291 19.5 14.4635 19.6263C13.3214 19.75 11.8818 19.75 10.0453 19.75H9.95473C8.11824 19.75 6.67859 19.75 5.53648 19.6263C4.37094 19.5 3.42656 19.2377 2.62024 18.6518C2.14981 18.3101 1.73405 17.899 1.38706 17.4327C1.37399 17.4151 1.36102 17.3975 1.34815 17.3798C0.762324 16.5734 0.500006 15.6291 0.373728 14.4635C0.249985 13.3214 0.249992 11.8818 0.25 10.0452V9.95475C0.249992 8.11821 0.249985 6.67861 0.373728 5.53648C0.500006 4.37094 0.762324 3.42656 1.34815 2.62024C1.70281 2.13209 2.13209 1.70281 2.62024 1.34815C3.42656 0.762324 4.37094 0.500006 5.53648 0.373728C6.67861 0.249985 8.11821 0.249992 9.95475 0.25ZM5.69804 1.865C4.66013 1.97745 4.00992 2.19259 3.50191 2.56168C3.14111 2.82382 2.82382 3.14111 2.56168 3.50191C2.19259 4.00992 1.97745 4.66013 1.865 5.69804C1.75103 6.74999 1.75 8.10843 1.75 10C1.75 11.8916 1.75103 13.25 1.865 14.302C1.90522 14.6732 1.95858 14.9948 2.02741 15.2781C2.30278 14.7487 2.53101 14.359 2.80143 14.0261C3.86636 12.7154 5.45369 11.939 7.14216 11.9032C7.77404 11.8897 8.44707 12.0244 9.54618 12.2444L9.67111 12.2694C9.8432 11.9843 9.99513 11.7558 10.1537 11.5606C12.0651 9.20873 15.4737 8.7441 17.9448 10.4986C18.0435 10.5687 18.1438 10.6476 18.2497 10.7373C18.25 10.5006 18.25 10.255 18.25 10C18.25 8.10843 18.249 6.74999 18.135 5.69804C18.0225 4.66013 17.8074 4.00992 17.4383 3.50191C17.1762 3.14111 16.8589 2.82382 16.4981 2.56168C15.9901 2.19259 15.3399 1.97745 14.302 1.865C13.25 1.75103 11.8916 1.75 10 1.75C8.10843 1.75 6.74999 1.75103 5.69804 1.865Z" fill="#94A3B8"/>
</svg>
