<svg width="16" height="16" viewBox="0 0 16 16" fill="none" xmlns="http://www.w3.org/2000/svg">
						<mask id="mask0_1083_212" style="mask-type:alpha" maskUnits="userSpaceOnUse" x="0" y="0" width="16" height="16">
							<ellipse cx="7.99995" cy="8.00033" rx="7.33345" ry="7.33333" fill="#D9D9D9" />
						</mask>
						<g mask="url(#mask0_1083_212)">
							<rect width="16.0003" height="16" fill="#FF616D" />
						</g>
						<path d="M7.63196 4.04032C7.74815 3.98915 7.87373 3.96278 8.00069 3.96289C8.12757 3.96292 8.25305 3.9894 8.36912 4.04063C8.48519 4.09185 8.58932 4.16671 8.67484 4.26043C8.76037 4.35414 8.82543 4.46465 8.86587 4.58491C8.9063 4.70517 8.92123 4.83254 8.90969 4.95889L8.54569 8.96489C8.53154 9.09957 8.46802 9.22425 8.36738 9.31487C8.26675 9.40548 8.13612 9.45563 8.00069 9.45563C7.86527 9.45563 7.73464 9.40548 7.634 9.31487C7.53337 9.22425 7.46985 9.09957 7.45569 8.96489L7.09069 4.95889C7.07915 4.83246 7.09411 4.705 7.1346 4.58468C7.1751 4.46435 7.24025 4.35379 7.32588 4.26006C7.41152 4.16633 7.51576 4.09149 7.63196 4.04032Z" fill="white" />
						<path d="M8.87306 11.1654C8.87306 11.6472 8.4825 12.0377 8.00073 12.0377C7.51896 12.0377 7.12841 11.6472 7.12841 11.1654C7.12841 10.6836 7.51896 10.2931 8.00073 10.2931C8.4825 10.2931 8.87306 10.6836 8.87306 11.1654Z" fill="white" />
						<g clip-path="url(#clip0_1083_212)">
							<mask id="mask1_1083_212" style="mask-type:alpha" maskUnits="userSpaceOnUse" x="0" y="0" width="16" height="16">
								<ellipse cx="7.99984" cy="8.00033" rx="7.33333" ry="7.33333" fill="#D9D9D9" />
							</mask>
							<g mask="url(#mask1_1083_212)">
								<rect width="16" height="16" fill="#006FFD" />
							</g>
							<path d="M11.1942 5.88721C10.9347 5.60771 10.5045 5.60336 10.2399 5.87828L7.26001 8.97425L5.75991 7.41571C5.49529 7.14078 5.06511 7.14513 4.80561 7.42463C4.55256 7.69719 4.55606 8.13067 4.81405 8.39871L7.26001 10.94L11.1857 6.86129C11.4437 6.59324 11.4472 6.15976 11.1942 5.88721Z" fill="white" />
						</g>
						<defs>
							<clipPath id="clip0_1083_212">
								<rect width="16" height="16" fill="white" />
							</clipPath>
						</defs>
					</svg>